<svg width="230" height="230" viewBox="0 0 230 230" fill="none" xmlns="http://www.w3.org/2000/svg">
<path d="M134.167 191.667L130.778 195.055L134.167 198.443L137.555 195.055L134.167 191.667ZM208.634 43.1248C211.28 43.1248 213.426 40.9795 213.426 38.3332C213.426 35.6868 211.28 33.5415 208.634 33.5415L208.634 43.1248ZM82.8618 147.138L130.778 195.055L137.555 188.278L89.6382 140.362L82.8618 147.138ZM137.555 195.055L185.472 147.138L178.695 140.362L130.778 188.278L137.555 195.055ZM138.958 191.667L138.958 95.8332L129.375 95.8332L129.375 191.667L138.958 191.667ZM191.667 43.1248L208.634 43.1248L208.634 33.5415L191.667 33.5415L191.667 43.1248ZM138.958 95.8332C138.958 66.7232 162.557 43.1248 191.667 43.1248L191.667 33.5415C157.264 33.5415 129.375 61.4304 129.375 95.8332L138.958 95.8332Z" fill="#B37A59"/>
</svg>
